<?xml version="1.0" encoding="utf-8"?>
<!-- Generator: Adobe Illustrator 16.0.0, SVG Export Plug-In . SVG Version: 6.00 Build 0)  -->
<!DOCTYPE svg PUBLIC "-//W3C//DTD SVG 1.1//EN" "http://www.w3.org/Graphics/SVG/1.1/DTD/svg11.dtd">
<svg version="1.1" id="Layer_1" xmlns="http://www.w3.org/2000/svg" xmlns:xlink="http://www.w3.org/1999/xlink" x="0px" y="0px"
	 width="826.858px" height="318.053px" viewBox="0 0 826.858 318.053" enable-background="new 0 0 826.858 318.053"
	 xml:space="preserve">
<rect x="10.059" y="280.161" fill-rule="evenodd" clip-rule="evenodd" fill="#2E3192" width="808.934" height="37.892"/>
<path fill-rule="evenodd" clip-rule="evenodd" fill="#2E3192" d="M172.756,53.606v68.471c0,7.568-6.125,13.694-13.694,13.694H49.508
	c-7.568,0-13.693-6.126-13.693-13.694V87.842V53.606v-27.39c0-7.568,6.125-13.692,13.693-13.692h54.778
	c7.569,0,13.694,6.125,13.694,13.692v13.695h41.082C166.632,39.912,172.756,46.036,172.756,53.606 M145.369,67.3h-95.86v41.082
	h95.86V67.3z"/>
<path fill-rule="evenodd" clip-rule="evenodd" fill="#2E3192" d="M200.145,5.678h-54.776v6.847h-25.891
	c3.29,3.638,5.349,8.412,5.349,13.692h20.542v6.849h54.776c7.61,0.054,13.801-6.099,13.801-13.695
	C213.946,11.775,207.754,5.624,200.145,5.678"/>
<polygon fill-rule="evenodd" clip-rule="evenodd" fill="#2E3192" points="254.922,46.76 254.922,128.924 227.533,115.229 
	227.533,108.382 186.451,108.382 186.451,67.3 227.533,67.3 227.533,60.453 "/>
<path fill="#2E3192" d="M10.435,231.093h8.819c3.013,0,5.193-0.504,6.541-1.512c1.346-1.006,2.008-2.659,2.008-4.96
	c0-0.981-0.123-2.084-0.392-3.307c-0.27-1.199-0.687-2.589-1.249-4.146L0,147.258h31.476l13.62,46.304l13.276-46.304h29.223
	l-25.254,75.974c-2.833,8.52-13.999,31.196-15.549,34.354c-1.556,3.165-3.265,5.533-4.997,7.188
	c-2.377,2.271-5.169,3.931-8.476,4.89c-3.307,0.959-8.649,1.585-16.07,1.438L10,270.959L10.435,231.093z"/>
<path fill="#2E3192" d="M91.393,185.34c0-12.653,3.918-22.623,11.758-29.886c7.862-7.285,18.641-10.929,32.382-10.929
	c13.718,0,24.496,3.644,32.31,10.929c7.814,7.263,11.733,17.232,11.733,29.886c0,12.728-3.919,22.744-11.758,30.055
	c-7.862,7.31-18.616,10.952-32.286,10.952c-13.692,0-24.47-3.643-32.334-10.952C95.336,208.084,91.393,198.067,91.393,185.34
	 M122.698,185.34c0,7.07,1.003,12.152,2.988,15.244c1.984,3.091,5.242,4.624,9.797,4.624c4.557,0,7.839-1.558,9.872-4.672
	c2.033-3.117,3.062-8.174,3.062-15.196c0-6.998-1.028-12.006-3.062-15.073c-2.033-3.068-5.315-4.603-9.872-4.603
	c-4.556,0-7.813,1.511-9.797,4.554C123.702,173.262,122.698,178.318,122.698,185.34z"/>
<path fill="#2E3192" d="M275.868,147.258v76.356h-28.366v-11.24c-3.625,4.483-7.692,7.813-12.15,9.994
	c-4.482,2.182-9.552,3.26-15.187,3.26c-4.752,0-8.989-0.768-12.713-2.325c-3.748-1.534-6.908-3.834-9.479-6.878
	c-2.302-2.708-3.919-6.016-4.875-9.922c-0.956-3.906-1.446-10.474-1.446-19.7v-39.545h31.012v39.401c0,5.8,0.783,9.826,2.375,12.055
	c1.568,2.229,4.312,3.331,8.182,3.331s6.786-1.295,8.72-3.858c1.935-2.589,2.915-6.471,2.915-11.672v-39.257H275.868z"/>
<polygon fill="#00A651" points="276.656,5.677 314.861,5.677 334.463,144.37 355.467,5.677 392.163,5.677 353.013,220.515 
	315.806,220.515 "/>
<rect x="405.401" y="5.678" fill="#00A651" width="38.494" height="214.837"/>
<path fill="#00A651" d="M466.967,220.515V5.678h45.757c11.604,0,20.258,0.945,25.937,2.84c5.678,1.892,10.62,5.028,14.824,9.41
	c8.163,8.765,14.279,21.066,18.402,36.902c4.094,15.837,6.141,35.358,6.141,58.464c0,24.354-2.538,44.771-7.643,61.354
	c-5.078,16.585-12.586,28.884-22.496,36.952c-3.823,3.236-8.655,5.527-14.417,6.873c-5.786,1.345-15.043,2.041-27.792,2.041H466.967
	z M504.807,166.133h10.155c9.42,0,15.945-3.835,19.604-11.502c3.63-7.72,5.459-21.465,5.459-41.337
	c0-19.319-1.856-33.066-5.596-41.133c-3.714-8.067-10.047-12.101-19.001-12.101h-10.621V166.133z"/>
<polygon fill="#00A651" points="595.421,220.515 595.421,5.678 689.585,5.678 689.585,57.071 633.26,57.071 633.26,85.756 
	680.875,85.756 680.875,135.06 633.26,135.06 633.26,168.225 691.905,168.225 691.905,220.515 "/>
<path fill="#00A651" d="M704.492,113.245c0-35.01,5.487-62.647,16.436-82.867C731.875,10.11,746.837,0,765.756,0
	c18.865,0,33.773,10.11,44.693,30.378c10.947,20.22,16.408,47.857,16.408,82.867c0,34.91-5.461,62.55-16.408,82.817
	c-10.92,20.269-25.828,30.429-44.693,30.429c-18.919,0-33.881-10.16-44.829-30.429C709.979,175.795,704.492,148.155,704.492,113.245
	 M742.661,113.294c0,20.37,1.855,35.26,5.597,44.821c3.74,9.512,9.582,14.292,17.527,14.292c7.917,0,13.706-4.73,17.39-14.242
	c3.687-9.463,5.517-24.402,5.517-44.871c0-20.516-1.83-35.506-5.517-44.968c-3.684-9.512-9.473-14.244-17.39-14.244
	c-7.945,0-13.787,4.783-17.527,14.294C744.516,77.938,742.661,92.878,742.661,113.294z"/>
<path fill="#2E3192" d="M431.347,271.14h-11.614v-39.09h15.633l5.529,19.509c0.074,0.264,0.223,0.87,0.436,1.813
	c0.214,0.952,0.527,2.256,0.926,3.914c0.249-1.305,0.481-2.456,0.703-3.435c0.214-0.979,0.41-1.722,0.565-2.22l5.668-19.582h15.605
	v39.09h-11.612l0.109-19.236c0-1.168,0-2.311,0.01-3.416c0.009-1.105,0.028-2.247,0.046-3.435c-0.436,2.021-0.963,4.223-1.575,6.606
	l-0.083,0.345l-4.937,19.136h-8.956l-4.992-18.711c-0.231-0.852-0.472-1.821-0.703-2.917c-0.231-1.097-0.546-2.583-0.928-4.459
	c0.057,1.686,0.104,3.127,0.131,4.323c0.027,1.205,0.037,2.176,0.037,2.898V271.14z"/>
<path fill="#2E3192" d="M468.402,271.14l14.058-39.09h13.004l14.058,39.09h-12.725l-1.5-5.163h-12.726l-1.547,5.163H468.402z
	 M484.906,257.766h8.057l-3.982-13.537L484.906,257.766z"/>
<path fill="#2E3192" d="M513.18,271.14v-39.09h19.116c5.992,0,10.271,0.88,12.826,2.629c2.566,1.748,3.845,4.62,3.845,8.625
	c0,2.383-0.528,4.368-1.575,5.945c-1.046,1.577-2.667,2.818-4.861,3.743c2.231,0.452,3.853,1.367,4.861,2.717
	c1.02,1.351,1.556,3.336,1.631,5.954l0.223,5.445c0,0.036,0.008,0.081,0.018,0.127c0.056,1.56,0.444,2.375,1.148,2.447v1.457
	h-12.957c-0.24-0.942-0.417-1.756-0.538-2.454c-0.119-0.697-0.175-1.242-0.175-1.632v-3.905c0-2.011-0.407-3.434-1.223-4.258
	c-0.805-0.826-2.213-1.233-4.223-1.233h-5.447v13.482H513.18z M525.849,248.851h5.827c2.046,0,3.454-0.273,4.231-0.816
	c0.777-0.533,1.167-1.477,1.167-2.828c0-1.386-0.39-2.346-1.167-2.881c-0.777-0.543-2.297-0.815-4.556-0.815h-5.503V248.851z"/>
<polygon fill="#2E3192" points="555.588,271.14 555.588,232.05 568.313,232.05 568.313,244.999 579.808,232.05 594.7,232.05 
	580.438,246.457 596.543,271.14 581.252,271.14 571.49,255.482 568.313,258.69 568.313,271.14 "/>
<polygon fill="#2E3192" points="598.923,271.14 598.923,232.05 630.866,232.05 630.866,241.402 611.76,241.402 611.76,246.621 
	627.912,246.621 627.912,255.592 611.76,255.592 611.76,261.627 631.653,261.627 631.653,271.14 "/>
<polygon fill="#2E3192" points="646.035,271.14 646.035,242.325 634.533,242.325 634.533,232.05 670.375,232.05 670.375,242.325 
	658.871,242.325 658.871,271.14 "/>
<rect x="666.827" y="259.396" fill="#2E3192" width="11.781" height="11.743"/>
<path fill="#2E3192" d="M711.57,255.989h12.168c-0.359,5.148-2.212,9.144-5.565,11.979c-3.344,2.837-7.881,4.26-13.595,4.26
	c-6.399,0-11.447-1.84-15.115-5.509c-3.677-3.67-5.511-8.709-5.511-15.097c0-6.371,1.815-11.398,5.454-15.078
	c3.642-3.688,8.596-5.526,14.876-5.526c5.789,0,10.335,1.367,13.66,4.104c3.314,2.736,5.176,6.649,5.575,11.733h-12.281
	c-0.185-2.002-0.842-3.508-1.981-4.531c-1.14-1.014-2.741-1.521-4.807-1.521c-2.52,0-4.4,0.897-5.659,2.692
	c-1.26,1.802-1.889,4.512-1.889,8.136c0,3.562,0.665,6.253,2.01,8.074c1.334,1.821,3.297,2.735,5.881,2.735
	c1.99,0,3.564-0.562,4.732-1.676C710.689,259.651,711.375,258.064,711.57,255.989"/>
<path fill="#2E3192" d="M727.417,251.623c0-6.371,1.861-11.398,5.575-15.078c3.714-3.688,8.789-5.526,15.207-5.526
	c6.398,0,11.456,1.838,15.161,5.526c3.713,3.68,5.566,8.707,5.566,15.078c0,6.352-1.854,11.382-5.566,15.069
	c-3.705,3.687-8.763,5.536-15.161,5.536c-6.418,0-11.493-1.85-15.207-5.536C729.278,263.005,727.417,257.975,727.417,251.623
	 M740.364,251.632c0,3.706,0.629,6.415,1.897,8.156c1.271,1.729,3.251,2.601,5.947,2.601c2.686,0,4.649-0.861,5.9-2.594
	c1.248-1.721,1.869-4.439,1.869-8.163c0-3.734-0.621-6.461-1.869-8.183c-1.251-1.73-3.215-2.592-5.9-2.592
	c-2.696,0-4.677,0.871-5.947,2.6C740.993,245.198,740.364,247.917,740.364,251.632z"/>
<path fill="#2E3192" d="M786.42,271.14h-11.612v-39.09h15.633l5.528,19.509c0.075,0.264,0.222,0.87,0.436,1.813
	c0.213,0.952,0.528,2.256,0.926,3.914c0.25-1.305,0.482-2.456,0.704-3.435c0.214-0.979,0.407-1.722,0.564-2.22l5.669-19.582h15.605
	v39.09h-11.614l0.111-19.236c0-1.168,0-2.311,0.009-3.416s0.028-2.247,0.047-3.435c-0.435,2.021-0.964,4.223-1.574,6.606
	l-0.084,0.345l-4.937,19.136h-8.955l-4.992-18.711c-0.23-0.852-0.473-1.821-0.705-2.917c-0.23-1.097-0.545-2.583-0.925-4.459
	c0.055,1.686,0.102,3.127,0.129,4.323c0.028,1.205,0.037,2.176,0.037,2.898V271.14z"/>
<g>
	<polygon fill="#FFFFFF" points="321.417,313.342 317.771,313.342 328.556,289.225 332.197,289.225 	"/>
	<polygon fill="#FFFFFF" points="470.701,313.342 467.055,313.342 477.84,289.225 481.48,289.225 	"/>
	<path fill="#FFFFFF" d="M213.559,310.755v-20.899h13.837c6.518,0,11.706,1.104,11.706,5.253c0,2.149-1.93,3.717-3.781,4.558
		c3.138,0.581,4.828,2.526,4.828,4.79c0,4.674-4.948,6.299-12.47,6.299H213.559z M223.052,294.731v3.485h3.942
		c1.89,0,3.258-0.61,3.258-1.83c0-1.626-1.851-1.655-3.862-1.655H223.052z M223.052,302.018v3.861h4.143
		c2.333,0,4.104-0.349,4.104-1.916c0-1.828-2.213-1.945-5.229-1.945H223.052z"/>
	<path fill="#FFFFFF" d="M244.227,289.855h9.566v12.511c0,2.061,0.567,3.831,4.499,3.831c3.445,0,4.458-1.566,4.458-3.831v-12.511
		h9.565v11.813c0,6.706-4.337,9.638-14.024,9.638c-9.039,0-14.064-2.468-14.064-9.666V289.855z"/>
	<path fill="#FFFFFF" d="M294.417,310.755h-9.326v-7.604l-10.59-13.295h10.433l4.899,7.082l4.899-7.082h10.274l-10.59,13.179
		V310.755z"/>
	<path fill="#FFFFFF" d="M362.646,295.685c-0.158-0.728-0.672-1.164-1.344-1.427c-0.672-0.262-1.501-0.379-2.411-0.379
		c-2.055,0-2.964,0.438-2.964,1.194c0,3.144,16.359,1.192,16.359,8.821c0,4.86-5.491,7.22-13.315,7.22
		c-7.508,0-12.408-3.232-12.606-7.017h8.931c0.198,0.757,0.751,1.31,1.542,1.659c0.751,0.351,1.739,0.524,2.648,0.524
		c2.331,0,3.873-0.553,3.873-1.544c0-3.172-16.36-0.989-16.36-8.996c0-4.453,5.216-6.694,12.33-6.694
		c7.903,0,11.499,2.969,12.17,6.638H362.646z"/>
	<path fill="#FFFFFF" d="M376.599,310.561v-20.727h23.195v4.836h-13.869v2.966h11.735v4.836h-11.735v3.253h14.422v4.836H376.599z"/>
	<path fill="#FFFFFF" d="M404.664,310.561V289.6h9.325v15.655h12.804v5.306H404.664z"/>
	<path fill="#FFFFFF" d="M430.846,310.561V289.6h9.325v15.655h12.804v5.306H430.846z"/>
	<path fill="#FFFFFF" d="M510.605,295.901c-0.158-0.727-0.671-1.161-1.345-1.423c-0.671-0.261-1.501-0.378-2.409-0.378
		c-2.056,0-2.964,0.437-2.964,1.19c0,3.136,16.358,1.191,16.358,8.796c0,4.849-5.492,7.2-13.315,7.2
		c-7.509,0-12.408-3.223-12.605-6.996h8.929c0.199,0.755,0.752,1.307,1.541,1.655c0.751,0.348,1.739,0.522,2.647,0.522
		c2.333,0,3.873-0.553,3.873-1.539c0-3.164-16.36-0.987-16.36-8.971c0-4.441,5.216-6.678,12.329-6.678
		c7.903,0,11.5,2.962,12.172,6.62H510.605z"/>
	<path fill="#FFFFFF" d="M524.282,310.735v-20.901h9.324v7.054h8.812v-7.054h9.326v20.901h-9.326v-8.099h-8.812v8.099H524.282z"/>
	<path fill="#FFFFFF" d="M585.852,300.168c0,7.112-6.521,11.119-14.938,11.119c-8.93,0-14.897-4.064-14.897-11.177
		c0-6.561,6.047-10.829,14.897-10.829C581.07,289.281,585.852,294.651,585.852,300.168z M565.343,300.168
		c0,2.671,1.106,6.011,5.571,6.011c4.03,0,5.611-2.556,5.611-6.011c0-2.845-1.581-5.864-5.688-5.776
		C566.608,294.392,565.343,297.526,565.343,300.168z"/>
	<path fill="#FFFFFF" d="M589.652,310.735v-20.901h13.711c8.18,0,12.131,2.757,12.131,7.054c0,4.5-3.635,7.345-11.815,7.345h-4.7
		v6.503H589.652z M602.849,299.355c2.174,0,3.753-0.639,3.753-2.438c0-1.945-3.002-2.205-4.978-2.205h-2.646v4.644H602.849z"/>
</g>
</svg>
